<mxfile host="app.diagrams.net" modified="2020-12-13T18:02:28.416Z" agent="5.0 (Windows NT 10.0; Win64; x64) AppleWebKit/537.36 (KHTML, like Gecko) Chrome/87.0.4280.88 Safari/537.36" etag="psDdbyTAM57ty2RMmP_s" version="13.11.0" type="github">
  <diagram id="Vd4rNCXtSsH7h7m5AwRn" name="Article">
    <mxGraphModel dx="782" dy="437" grid="1" gridSize="10" guides="1" tooltips="1" connect="1" arrows="1" fold="1" page="1" pageScale="1" pageWidth="827" pageHeight="1169" math="0" shadow="0">
      <root>
        <mxCell id="5uMioibvbi96hbgjhdTk-0" />
        <mxCell id="5uMioibvbi96hbgjhdTk-1" parent="5uMioibvbi96hbgjhdTk-0" />
        <mxCell id="5uMioibvbi96hbgjhdTk-2" value="Article" style="swimlane;fontStyle=1;align=center;verticalAlign=top;childLayout=stackLayout;horizontal=1;startSize=26;horizontalStack=0;resizeParent=1;resizeParentMax=0;resizeLast=0;collapsible=1;marginBottom=0;" parent="5uMioibvbi96hbgjhdTk-1" vertex="1">
          <mxGeometry x="230" y="140" width="240" height="190" as="geometry">
            <mxRectangle x="280" y="140" width="70" height="26" as="alternateBounds" />
          </mxGeometry>
        </mxCell>
        <mxCell id="5uMioibvbi96hbgjhdTk-3" value="- title: string&#xa;- author: string&#xa;- price: double&#xa;- tags: Tag[]" style="text;strokeColor=none;fillColor=none;align=left;verticalAlign=top;spacingLeft=4;spacingRight=4;overflow=hidden;rotatable=0;points=[[0,0.5],[1,0.5]];portConstraint=eastwest;" parent="5uMioibvbi96hbgjhdTk-2" vertex="1">
          <mxGeometry y="26" width="240" height="64" as="geometry" />
        </mxCell>
        <mxCell id="5uMioibvbi96hbgjhdTk-4" value="" style="line;strokeWidth=1;fillColor=none;align=left;verticalAlign=middle;spacingTop=-1;spacingLeft=3;spacingRight=3;rotatable=0;labelPosition=right;points=[];portConstraint=eastwest;" parent="5uMioibvbi96hbgjhdTk-2" vertex="1">
          <mxGeometry y="90" width="240" height="8" as="geometry" />
        </mxCell>
        <mxCell id="5uMioibvbi96hbgjhdTk-5" value="+ Article(string, string, double, Tag[])&#xa;+ getTags(): string[]Â &#xa;+ getTitle(): string&#xa;+ getAuthor(): string&#xa;+ setPrice(double): void&#xa;+ getPrice(): double" style="text;strokeColor=none;fillColor=none;align=left;verticalAlign=top;spacingLeft=4;spacingRight=4;overflow=hidden;rotatable=0;points=[[0,0.5],[1,0.5]];portConstraint=eastwest;" parent="5uMioibvbi96hbgjhdTk-2" vertex="1">
          <mxGeometry y="98" width="240" height="92" as="geometry" />
        </mxCell>
        <mxCell id="5uMioibvbi96hbgjhdTk-6" value="Tag" style="swimlane;fontStyle=1;align=center;verticalAlign=top;childLayout=stackLayout;horizontal=1;startSize=26;horizontalStack=0;resizeParent=1;resizeParentMax=0;resizeLast=0;collapsible=1;marginBottom=0;" parent="5uMioibvbi96hbgjhdTk-1" vertex="1">
          <mxGeometry x="590" y="150" width="140" height="120" as="geometry">
            <mxRectangle x="590" y="150" width="50" height="26" as="alternateBounds" />
          </mxGeometry>
        </mxCell>
        <mxCell id="5uMioibvbi96hbgjhdTk-7" value="- tag: string&#xa;" style="text;strokeColor=none;fillColor=none;align=left;verticalAlign=top;spacingLeft=4;spacingRight=4;overflow=hidden;rotatable=0;points=[[0,0.5],[1,0.5]];portConstraint=eastwest;" parent="5uMioibvbi96hbgjhdTk-6" vertex="1">
          <mxGeometry y="26" width="140" height="24" as="geometry" />
        </mxCell>
        <mxCell id="5uMioibvbi96hbgjhdTk-8" value="" style="line;strokeWidth=1;fillColor=none;align=left;verticalAlign=middle;spacingTop=-1;spacingLeft=3;spacingRight=3;rotatable=0;labelPosition=right;points=[];portConstraint=eastwest;" parent="5uMioibvbi96hbgjhdTk-6" vertex="1">
          <mxGeometry y="50" width="140" height="8" as="geometry" />
        </mxCell>
        <mxCell id="5uMioibvbi96hbgjhdTk-9" value="+ Tag(string)&#xa;+ getTag(): string&#xa;+ isPhrase(): bool" style="text;strokeColor=none;fillColor=none;align=left;verticalAlign=top;spacingLeft=4;spacingRight=4;overflow=hidden;rotatable=0;points=[[0,0.5],[1,0.5]];portConstraint=eastwest;" parent="5uMioibvbi96hbgjhdTk-6" vertex="1">
          <mxGeometry y="58" width="140" height="62" as="geometry" />
        </mxCell>
        <mxCell id="5uMioibvbi96hbgjhdTk-15" value="TextArticle" style="swimlane;fontStyle=1;align=center;verticalAlign=top;childLayout=stackLayout;horizontal=1;startSize=26;horizontalStack=0;resizeParent=1;resizeParentMax=0;resizeLast=0;collapsible=1;marginBottom=0;" parent="5uMioibvbi96hbgjhdTk-1" vertex="1">
          <mxGeometry x="60" y="380" width="270" height="140" as="geometry">
            <mxRectangle x="150" y="280" width="90" height="26" as="alternateBounds" />
          </mxGeometry>
        </mxCell>
        <mxCell id="5uMioibvbi96hbgjhdTk-16" value="- memo: string" style="text;strokeColor=none;fillColor=none;align=left;verticalAlign=top;spacingLeft=4;spacingRight=4;overflow=hidden;rotatable=0;points=[[0,0.5],[1,0.5]];portConstraint=eastwest;" parent="5uMioibvbi96hbgjhdTk-15" vertex="1">
          <mxGeometry y="26" width="270" height="34" as="geometry" />
        </mxCell>
        <mxCell id="5uMioibvbi96hbgjhdTk-17" value="" style="line;strokeWidth=1;fillColor=none;align=left;verticalAlign=middle;spacingTop=-1;spacingLeft=3;spacingRight=3;rotatable=0;labelPosition=right;points=[];portConstraint=eastwest;" parent="5uMioibvbi96hbgjhdTk-15" vertex="1">
          <mxGeometry y="60" width="270" height="8" as="geometry" />
        </mxCell>
        <mxCell id="5uMioibvbi96hbgjhdTk-18" value="+ TextArticle(string, string, double, Tag[], string)&#xa;+ print(): void&#xa;+ toJSONString(): string" style="text;strokeColor=none;fillColor=none;align=left;verticalAlign=top;spacingLeft=4;spacingRight=4;overflow=hidden;rotatable=0;points=[[0,0.5],[1,0.5]];portConstraint=eastwest;" parent="5uMioibvbi96hbgjhdTk-15" vertex="1">
          <mxGeometry y="68" width="270" height="72" as="geometry" />
        </mxCell>
        <mxCell id="2xfxii0tXd6Dl0owVV2G-0" value="Extends" style="endArrow=block;endSize=16;endFill=0;html=1;entryX=0.25;entryY=1;entryDx=0;entryDy=0;exitX=0.5;exitY=0;exitDx=0;exitDy=0;" parent="5uMioibvbi96hbgjhdTk-1" source="5uMioibvbi96hbgjhdTk-15" target="5uMioibvbi96hbgjhdTk-2" edge="1">
          <mxGeometry x="-0.1463" y="20" width="160" relative="1" as="geometry">
            <mxPoint x="280" y="350" as="sourcePoint" />
            <mxPoint x="440" y="350" as="targetPoint" />
            <mxPoint as="offset" />
          </mxGeometry>
        </mxCell>
        <mxCell id="2xfxii0tXd6Dl0owVV2G-1" value="VideoArticle" style="swimlane;fontStyle=1;align=center;verticalAlign=top;childLayout=stackLayout;horizontal=1;startSize=26;horizontalStack=0;resizeParent=1;resizeParentMax=0;resizeLast=0;collapsible=1;marginBottom=0;" parent="5uMioibvbi96hbgjhdTk-1" vertex="1">
          <mxGeometry x="380" y="380" width="290" height="130" as="geometry">
            <mxRectangle x="370" y="280" width="100" height="26" as="alternateBounds" />
          </mxGeometry>
        </mxCell>
        <mxCell id="2xfxii0tXd6Dl0owVV2G-2" value="- videolink: string" style="text;strokeColor=none;fillColor=none;align=left;verticalAlign=top;spacingLeft=4;spacingRight=4;overflow=hidden;rotatable=0;points=[[0,0.5],[1,0.5]];portConstraint=eastwest;" parent="2xfxii0tXd6Dl0owVV2G-1" vertex="1">
          <mxGeometry y="26" width="290" height="34" as="geometry" />
        </mxCell>
        <mxCell id="2xfxii0tXd6Dl0owVV2G-3" value="" style="line;strokeWidth=1;fillColor=none;align=left;verticalAlign=middle;spacingTop=-1;spacingLeft=3;spacingRight=3;rotatable=0;labelPosition=right;points=[];portConstraint=eastwest;" parent="2xfxii0tXd6Dl0owVV2G-1" vertex="1">
          <mxGeometry y="60" width="290" height="8" as="geometry" />
        </mxCell>
        <mxCell id="2xfxii0tXd6Dl0owVV2G-4" value="+ VideoArticle(string, string, double, Tag[], string)&#xa;+ play(): void&#xa;+ toJSONString(): string" style="text;strokeColor=none;fillColor=none;align=left;verticalAlign=top;spacingLeft=4;spacingRight=4;overflow=hidden;rotatable=0;points=[[0,0.5],[1,0.5]];portConstraint=eastwest;" parent="2xfxii0tXd6Dl0owVV2G-1" vertex="1">
          <mxGeometry y="68" width="290" height="62" as="geometry" />
        </mxCell>
        <mxCell id="2xfxii0tXd6Dl0owVV2G-5" value="Extends" style="endArrow=block;endSize=16;endFill=0;html=1;entryX=0.75;entryY=1;entryDx=0;entryDy=0;exitX=0.5;exitY=0;exitDx=0;exitDy=0;" parent="5uMioibvbi96hbgjhdTk-1" source="2xfxii0tXd6Dl0owVV2G-1" target="5uMioibvbi96hbgjhdTk-2" edge="1">
          <mxGeometry x="-0.2683" y="-27" width="160" relative="1" as="geometry">
            <mxPoint x="220" y="240" as="sourcePoint" />
            <mxPoint x="325" y="176" as="targetPoint" />
            <mxPoint as="offset" />
          </mxGeometry>
        </mxCell>
        <mxCell id="53UcHR5WeEn8w3ysAne4-1" value="1...*" style="endArrow=open;html=1;endSize=12;startArrow=diamondThin;startSize=14;startFill=1;edgeStyle=orthogonalEdgeStyle;align=left;verticalAlign=bottom;entryX=0;entryY=0.5;entryDx=0;entryDy=0;exitX=1;exitY=0.5;exitDx=0;exitDy=0;" edge="1" parent="5uMioibvbi96hbgjhdTk-1" source="5uMioibvbi96hbgjhdTk-3" target="5uMioibvbi96hbgjhdTk-7">
          <mxGeometry x="-1" y="8" relative="1" as="geometry">
            <mxPoint x="320" y="320" as="sourcePoint" />
            <mxPoint x="480" y="320" as="targetPoint" />
            <mxPoint as="offset" />
          </mxGeometry>
        </mxCell>
      </root>
    </mxGraphModel>
  </diagram>
</mxfile>
